<svg width="190" height="38" viewBox="0 0 190 38" fill="none" xmlns="http://www.w3.org/2000/svg">
<path d="M6 0.5H184C187.038 0.5 189.5 2.96243 189.5 6V32C189.5 35.0376 187.038 37.5 184 37.5H6C2.96244 37.5 0.5 35.0376 0.5 32V6C0.5 2.96243 2.96243 0.5 6 0.5Z" fill="#FF9017" stroke="#FF9017"/>
<mask id="mask0" mask-type="alpha" maskUnits="userSpaceOnUse" x="0" y="0" width="190" height="38">
<path d="M6 0.5H184C187.038 0.5 189.5 2.96243 189.5 6V32C189.5 35.0376 187.038 37.5 184 37.5H6C2.96244 37.5 0.5 35.0376 0.5 32V6C0.5 2.96243 2.96243 0.5 6 0.5Z" fill="white" stroke="white"/>
</mask>
<g mask="url(#mask0)">
</g>
<path fill-rule="evenodd" clip-rule="evenodd" d="M169 26.0125L167.913 25.0225C164.05 21.52 161.5 19.21 161.5 16.375C161.5 14.065 163.315 12.25 165.625 12.25C166.93 12.25 168.182 12.8575 169 13.8175C169.818 12.8575 171.07 12.25 172.375 12.25C174.685 12.25 176.5 14.065 176.5 16.375C176.5 19.21 173.95 21.52 170.087 25.03L169 26.0125V26.0125Z" fill="#FF1717"/>
<path d="M55.1729 24.1651C56.4566 24.1651 57.2237 23.5632 57.5753 22.8761H57.6392V24H59.4929V18.5241C59.4929 16.3615 57.7297 15.7116 56.169 15.7116C54.4485 15.7116 53.1275 16.4787 52.7013 17.9702L54.5017 18.2259C54.6935 17.6665 55.2368 17.1871 56.1797 17.1871C57.0745 17.1871 57.5646 17.6452 57.5646 18.4496V18.4815C57.5646 19.0355 56.984 19.0621 55.5404 19.2166C53.9531 19.3871 52.435 19.8612 52.435 21.7042C52.435 23.3129 53.6122 24.1651 55.1729 24.1651ZM55.6736 22.7482C54.8693 22.7482 54.294 22.3807 54.294 21.6722C54.294 20.9318 54.9385 20.6229 55.8015 20.5004C56.3075 20.4311 57.3196 20.3033 57.5699 20.1009V21.065C57.5699 21.9759 56.8348 22.7482 55.6736 22.7482ZM64.368 24.1438C65.7743 24.1438 66.4081 23.3075 66.7118 22.7109H66.8289V24H68.7252V13.0909H66.7917V17.1712H66.7118C66.4188 16.5799 65.8169 15.7116 64.3733 15.7116C62.4824 15.7116 60.9962 17.1925 60.9962 19.9197C60.9962 22.6151 62.4397 24.1438 64.368 24.1438ZM64.906 22.5618C63.6329 22.5618 62.9618 21.4432 62.9618 19.9091C62.9618 18.3857 63.6223 17.2937 64.906 17.2937C66.1471 17.2937 66.8289 18.3217 66.8289 19.9091C66.8289 21.4964 66.1365 22.5618 64.906 22.5618ZM73.7162 24.1438C75.1225 24.1438 75.7564 23.3075 76.06 22.7109H76.1772V24H78.0735V13.0909H76.1399V17.1712H76.06C75.767 16.5799 75.1651 15.7116 73.7216 15.7116C71.8306 15.7116 70.3444 17.1925 70.3444 19.9197C70.3444 22.6151 71.788 24.1438 73.7162 24.1438ZM74.2542 22.5618C72.9812 22.5618 72.31 21.4432 72.31 19.9091C72.31 18.3857 72.9705 17.2937 74.2542 17.2937C75.4954 17.2937 76.1772 18.3217 76.1772 19.9091C76.1772 21.4964 75.4847 22.5618 74.2542 22.5618ZM87.7346 15.8182H86.1206V13.858H84.1923V15.8182H83.0311V17.3097H84.1923V21.8587C84.1816 23.3981 85.3002 24.1545 86.7491 24.1119C87.2978 24.0959 87.676 23.9893 87.8837 23.9201L87.5588 22.4126C87.4522 22.4393 87.2338 22.4872 86.9941 22.4872C86.5094 22.4872 86.1206 22.3168 86.1206 21.5391V17.3097H87.7346V15.8182ZM92.7282 24.1598C95.1252 24.1598 96.6487 22.4712 96.6487 19.9411C96.6487 17.4055 95.1252 15.7116 92.7282 15.7116C90.3312 15.7116 88.8078 17.4055 88.8078 19.9411C88.8078 22.4712 90.3312 24.1598 92.7282 24.1598ZM92.7389 22.6151C91.4125 22.6151 90.7627 21.4325 90.7627 19.9357C90.7627 18.4389 91.4125 17.2404 92.7389 17.2404C94.0439 17.2404 94.6938 18.4389 94.6938 19.9357C94.6938 21.4325 94.0439 22.6151 92.7389 22.6151ZM103.495 24H105.508L107.042 18.4709H107.154L108.688 24H110.696L113.013 15.8182H111.043L109.626 21.5391H109.546L108.076 15.8182H106.131L104.661 21.571H104.587L103.148 15.8182H101.183L103.495 24ZM114.26 24H116.188V15.8182H114.26V24ZM115.229 14.657C115.842 14.657 116.342 14.1882 116.342 13.6129C116.342 13.0323 115.842 12.5636 115.229 12.5636C114.611 12.5636 114.111 13.0323 114.111 13.6129C114.111 14.1882 114.611 14.657 115.229 14.657ZM124.537 17.9808C124.271 16.5959 123.163 15.7116 121.246 15.7116C119.275 15.7116 117.932 16.6811 117.938 18.1939C117.932 19.3871 118.667 20.1754 120.239 20.5004L121.634 20.7933C122.385 20.9585 122.737 21.2621 122.737 21.7255C122.737 22.2848 122.13 22.7056 121.214 22.7056C120.329 22.7056 119.754 22.3221 119.589 21.587L117.709 21.7681C117.948 23.2702 119.211 24.1598 121.219 24.1598C123.264 24.1598 124.708 23.0998 124.713 21.5497C124.708 20.3832 123.957 19.6694 122.412 19.3338L121.017 19.0355C120.186 18.8491 119.855 18.5614 119.861 18.0874C119.855 17.5334 120.468 17.1499 121.272 17.1499C122.162 17.1499 122.631 17.6346 122.78 18.1726L124.537 17.9808ZM128.132 19.206C128.132 18.0234 128.867 17.3416 129.9 17.3416C130.912 17.3416 131.509 17.9862 131.509 19.0888V24H133.437V18.7905C133.437 16.8143 132.318 15.7116 130.619 15.7116C129.362 15.7116 128.563 16.2816 128.185 17.2085H128.089V13.0909H126.203V24H128.132V19.206ZM137.231 13.0909H135.302V24H137.231V13.0909ZM139.114 24H141.042V15.8182H139.114V24ZM140.083 14.657C140.696 14.657 141.196 14.1882 141.196 13.6129C141.196 13.0323 140.696 12.5636 140.083 12.5636C139.465 12.5636 138.964 13.0323 138.964 13.6129C138.964 14.1882 139.465 14.657 140.083 14.657ZM149.391 17.9808C149.125 16.5959 148.017 15.7116 146.099 15.7116C144.129 15.7116 142.786 16.6811 142.792 18.1939C142.786 19.3871 143.521 20.1754 145.093 20.5004L146.488 20.7933C147.239 20.9585 147.591 21.2621 147.591 21.7255C147.591 22.2848 146.984 22.7056 146.068 22.7056C145.183 22.7056 144.608 22.3221 144.443 21.587L142.563 21.7681C142.802 23.2702 144.065 24.1598 146.073 24.1598C148.118 24.1598 149.562 23.0998 149.567 21.5497C149.562 20.3832 148.811 19.6694 147.266 19.3338L145.87 19.0355C145.039 18.8491 144.709 18.5614 144.715 18.0874C144.709 17.5334 145.322 17.1499 146.126 17.1499C147.016 17.1499 147.484 17.6346 147.634 18.1726L149.391 17.9808ZM155.143 15.8182H153.529V13.858H151.6V15.8182H150.439V17.3097H151.6V21.8587C151.59 23.3981 152.708 24.1545 154.157 24.1119C154.706 24.0959 155.084 23.9893 155.292 23.9201L154.967 22.4126C154.86 22.4393 154.642 22.4872 154.402 22.4872C153.918 22.4872 153.529 22.3168 153.529 21.5391V17.3097H155.143V15.8182Z" fill="black"/>
</svg>
