<svg width="190" height="38" viewBox="0 0 190 38" fill="none" xmlns="http://www.w3.org/2000/svg">
<path d="M6 0.5H184C187.038 0.5 189.5 2.96243 189.5 6V32C189.5 35.0376 187.038 37.5 184 37.5H6C2.96244 37.5 0.5 35.0376 0.5 32V6C0.5 2.96243 2.96243 0.5 6 0.5Z" fill="#FF9017" stroke="#FF1818"/>
<mask id="mask0" mask-type="alpha" maskUnits="userSpaceOnUse" x="0" y="0" width="190" height="38">
<path d="M6 0.5H184C187.038 0.5 189.5 2.96243 189.5 6V32C189.5 35.0376 187.038 37.5 184 37.5H6C2.96244 37.5 0.5 35.0376 0.5 32V6C0.5 2.96243 2.96243 0.5 6 0.5Z" fill="white" stroke="white"/>
</mask>
<g mask="url(#mask0)">
</g>
<path d="M54.7274 24L55.6276 21.31H59.7292L60.6347 24H62.7441L58.8982 13.0909H56.4586L52.618 24H54.7274ZM56.1603 19.7227L57.6358 15.3281H57.721L59.1965 19.7227H56.1603ZM66.7829 24.1438C68.1892 24.1438 68.8231 23.3075 69.1267 22.7109H69.2439V24H71.1402V13.0909H69.2066V17.1712H69.1267C68.8337 16.5799 68.2318 15.7116 66.7883 15.7116C64.8973 15.7116 63.4111 17.1925 63.4111 19.9197C63.4111 22.6151 64.8547 24.1438 66.7829 24.1438ZM67.3209 22.5618C66.0479 22.5618 65.3767 21.4432 65.3767 19.9091C65.3767 18.3857 66.0372 17.2937 67.3209 17.2937C68.5621 17.2937 69.2439 18.3217 69.2439 19.9091C69.2439 21.4964 68.5514 22.5618 67.3209 22.5618ZM76.1312 24.1438C77.5374 24.1438 78.1713 23.3075 78.4749 22.7109H78.5921V24H80.4884V13.0909H78.5548V17.1712H78.4749C78.182 16.5799 77.5801 15.7116 76.1365 15.7116C74.2455 15.7116 72.7594 17.1925 72.7594 19.9197C72.7594 22.6151 74.2029 24.1438 76.1312 24.1438ZM76.6692 22.5618C75.3961 22.5618 74.7249 21.4432 74.7249 19.9091C74.7249 18.3857 75.3854 17.2937 76.6692 17.2937C77.9103 17.2937 78.5921 18.3217 78.5921 19.9091C78.5921 21.4964 77.8997 22.5618 76.6692 22.5618ZM90.1495 15.8182H88.5355V13.858H86.6072V15.8182H85.446V17.3097H86.6072V21.8587C86.5966 23.3981 87.7152 24.1545 89.1641 24.1119C89.7127 24.0959 90.0909 23.9893 90.2986 23.9201L89.9737 22.4126C89.8672 22.4393 89.6488 22.4872 89.4091 22.4872C88.9244 22.4872 88.5355 22.3168 88.5355 21.5391V17.3097H90.1495V15.8182ZM95.1432 24.1598C97.5402 24.1598 99.0636 22.4712 99.0636 19.9411C99.0636 17.4055 97.5402 15.7116 95.1432 15.7116C92.7461 15.7116 91.2227 17.4055 91.2227 19.9411C91.2227 22.4712 92.7461 24.1598 95.1432 24.1598ZM95.1538 22.6151C93.8275 22.6151 93.1776 21.4325 93.1776 19.9357C93.1776 18.4389 93.8275 17.2404 95.1538 17.2404C96.4589 17.2404 97.1087 18.4389 97.1087 19.9357C97.1087 21.4325 96.4589 22.6151 95.1538 22.6151ZM113.644 16.7717C113.308 14.348 111.444 12.9418 109.026 12.9418C106.176 12.9418 104.029 15.0192 104.029 18.5455C104.029 22.0664 106.149 24.1491 109.026 24.1491C111.62 24.1491 113.34 22.4712 113.644 20.3885L111.652 20.3778C111.401 21.6562 110.357 22.3754 109.052 22.3754C107.284 22.3754 106.016 21.049 106.016 18.5455C106.016 16.0845 107.273 14.7156 109.058 14.7156C110.384 14.7156 111.423 15.4666 111.652 16.7717H113.644ZM117.623 24.1651C118.907 24.1651 119.674 23.5632 120.025 22.8761H120.089V24H121.943V18.5241C121.943 16.3615 120.18 15.7116 118.619 15.7116C116.898 15.7116 115.577 16.4787 115.151 17.9702L116.952 18.2259C117.143 17.6665 117.687 17.1871 118.63 17.1871C119.524 17.1871 120.014 17.6452 120.014 18.4496V18.4815C120.014 19.0355 119.434 19.0621 117.99 19.2166C116.403 19.3871 114.885 19.8612 114.885 21.7042C114.885 23.3129 116.062 24.1651 117.623 24.1651ZM118.124 22.7482C117.319 22.7482 116.744 22.3807 116.744 21.6722C116.744 20.9318 117.388 20.6229 118.251 20.5004C118.757 20.4311 119.769 20.3033 120.02 20.1009V21.065C120.02 21.9759 119.285 22.7482 118.124 22.7482ZM123.782 24H125.71V19.19C125.71 18.1513 126.493 17.4162 127.553 17.4162C127.878 17.4162 128.283 17.4748 128.448 17.5281V15.7543C128.272 15.7223 127.968 15.701 127.755 15.701C126.818 15.701 126.035 16.2337 125.737 17.1818H125.651V15.8182H123.782V24ZM132.328 24.1438C133.735 24.1438 134.368 23.3075 134.672 22.7109H134.789V24H136.686V13.0909H134.752V17.1712H134.672C134.379 16.5799 133.777 15.7116 132.334 15.7116C130.443 15.7116 128.956 17.1925 128.956 19.9197C128.956 22.6151 130.4 24.1438 132.328 24.1438ZM132.866 22.5618C131.593 22.5618 130.922 21.4432 130.922 19.9091C130.922 18.3857 131.583 17.2937 132.866 17.2937C134.107 17.2937 134.789 18.3217 134.789 19.9091C134.789 21.4964 134.097 22.5618 132.866 22.5618Z" fill="black"/>
</svg>
