<svg width="49" height="48" viewBox="0 0 49 48" fill="none" xmlns="http://www.w3.org/2000/svg">
<g clip-path="url(#clip0)">
<path fill-rule="evenodd" clip-rule="evenodd" d="M24.2066 48C37.5162 48 48.3058 37.2548 48.3058 24C48.3058 10.7452 37.5162 0 24.2066 0C10.897 0 0.107422 10.7452 0.107422 24C0.107422 37.2548 10.897 48 24.2066 48Z" fill="#FF9900"/>
<path fill-rule="evenodd" clip-rule="evenodd" d="M20.4409 29.5002C19.4326 29.5002 18.6168 30.3252 18.6168 31.3335C18.6168 32.3418 19.4326 33.1668 20.4409 33.1668C21.4493 33.1668 22.2743 32.3418 22.2743 31.3335C22.2743 30.3252 21.4493 29.5002 20.4409 29.5002ZM14.9409 14.8335V16.6668H16.7743L20.0743 23.6243L18.8368 25.8702C18.6901 26.1268 18.6076 26.4293 18.6076 26.7502C18.6076 27.7585 19.4326 28.5835 20.4409 28.5835H31.4409V26.7502H20.8259C20.6976 26.7502 20.5968 26.6493 20.5968 26.521L20.6243 26.411L21.4493 24.9168H28.2784C28.9659 24.9168 29.5709 24.541 29.8826 23.9727L33.1643 18.0235C33.2376 17.8952 33.2743 17.7393 33.2743 17.5835C33.2743 17.0793 32.8618 16.6668 32.3576 16.6668H18.8001L17.9384 14.8335H14.9409ZM29.6076 29.5002C28.5993 29.5002 27.7834 30.3252 27.7834 31.3335C27.7834 32.3418 28.5993 33.1668 29.6076 33.1668C30.6159 33.1668 31.4409 32.3418 31.4409 31.3335C31.4409 30.3252 30.6159 29.5002 29.6076 29.5002Z" fill="#969696"/>
</g>
<defs>
<clipPath id="clip0">
<rect x="0.107422" width="48.1983" height="48" fill="white"/>
</clipPath>
</defs>
</svg>
