<svg width="49" height="48" viewBox="0 0 49 48" fill="none" xmlns="http://www.w3.org/2000/svg">
<g clip-path="url(#clip0)">
<path fill-rule="evenodd" clip-rule="evenodd" d="M24.6861 48C37.9957 48 48.7853 37.2548 48.7853 24C48.7853 10.7452 37.9957 0 24.6861 0C11.3765 0 0.586914 10.7452 0.586914 24C0.586914 37.2548 11.3765 48 24.6861 48Z" fill="#FF9900"/>
<path fill-rule="evenodd" clip-rule="evenodd" d="M24.5869 13.9165C26.8694 13.9165 28.7119 15.759 28.7119 18.0415C28.7119 20.324 26.8694 22.1665 24.5869 22.1665C22.3044 22.1665 20.4619 20.324 20.4619 18.0415C20.4619 15.759 22.3044 13.9165 24.5869 13.9165ZM24.5869 33.4415C21.1494 33.4415 18.1107 31.6815 16.3369 29.014C16.3782 26.2777 21.8369 24.779 24.5869 24.779C27.3232 24.779 32.7957 26.2777 32.8369 29.014C31.0632 31.6815 28.0244 33.4415 24.5869 33.4415Z" fill="#969696"/>
</g>
<defs>
<clipPath id="clip0">
<rect x="0.586914" width="48.1983" height="48" fill="white"/>
</clipPath>
</defs>
</svg>
