<svg width="205" height="46" viewBox="0 0 205 46" fill="none" xmlns="http://www.w3.org/2000/svg">
<path d="M80.7177 28.836C81.1337 28.836 81.4717 28.8793 81.7317 28.966C82.0003 29.044 82.2343 29.161 82.4337 29.317C82.607 29.4557 82.75 29.6507 82.8627 29.902C82.984 30.1447 83.0447 30.5087 83.0447 30.994V37H81.3547C81.216 36.688 81.0427 36.467 80.8347 36.337C80.6267 36.1983 80.319 36.129 79.9117 36.129C79.591 36.129 79.2963 36.1463 79.0277 36.181C78.759 36.2157 78.4903 36.2503 78.2217 36.285C77.953 36.311 77.654 36.324 77.3247 36.324C76.952 36.324 76.5793 36.2937 76.2067 36.233C75.8427 36.1637 75.509 36.0337 75.2057 35.843C74.9023 35.6437 74.6553 35.3577 74.4647 34.985C74.2827 34.6037 74.1917 34.101 74.1917 33.477C74.1917 33.2517 74.209 33.0133 74.2437 32.762C74.2783 32.5107 74.313 32.2897 74.3477 32.099L76.0247 32.32C75.99 32.4413 75.9597 32.5887 75.9337 32.762C75.9077 32.9353 75.8947 33.1477 75.8947 33.399C75.8947 33.8237 75.9727 34.14 76.1287 34.348C76.2933 34.556 76.5057 34.6903 76.7657 34.751C77.0257 34.8117 77.2943 34.842 77.5717 34.842C77.979 34.842 78.3517 34.8117 78.6897 34.751C79.0277 34.6903 79.3613 34.66 79.6907 34.66C80.0373 34.66 80.332 34.7033 80.5747 34.79C80.8173 34.8767 81.0687 35.05 81.3287 35.31V31.345C81.3287 31.0677 81.3113 30.8683 81.2767 30.747C81.242 30.6257 81.1857 30.526 81.1077 30.448C80.9863 30.3267 80.8 30.266 80.5487 30.266C80.3147 30.266 80.0937 30.3223 79.8857 30.435C79.6863 30.539 79.5087 30.6733 79.3527 30.838C79.1967 31.0027 79.071 31.1673 78.9757 31.332C78.889 31.4967 78.8457 31.6353 78.8457 31.748C78.8457 31.8607 78.8847 31.9603 78.9627 32.047C79.0407 32.125 79.2183 32.164 79.4957 32.164C79.591 32.164 79.6733 32.1597 79.7427 32.151C79.812 32.1423 79.89 32.1337 79.9767 32.125L80.0547 33.516C79.942 33.5507 79.8033 33.581 79.6387 33.607C79.474 33.633 79.2703 33.646 79.0277 33.646C78.499 33.646 78.0527 33.5117 77.6887 33.243C77.3333 32.9743 77.1557 32.554 77.1557 31.982C77.1557 31.6267 77.2467 31.267 77.4287 30.903C77.6107 30.5303 77.8663 30.188 78.1957 29.876C78.525 29.564 78.902 29.3127 79.3267 29.122C79.76 28.9313 80.2237 28.836 80.7177 28.836ZM94.773 33.646C94.773 33.932 94.7124 34.205 94.591 34.465C94.4784 34.725 94.279 34.9373 93.993 35.102C93.707 35.2667 93.3084 35.349 92.797 35.349C92.4417 35.349 92.134 35.323 91.874 35.271L91.926 33.841C91.9694 33.8497 92.0214 33.8583 92.082 33.867C92.1514 33.867 92.238 33.867 92.342 33.867C92.654 33.867 92.8577 33.815 92.953 33.711C93.0484 33.5983 93.096 33.464 93.096 33.308C93.096 33.0307 92.927 32.7837 92.589 32.567C92.251 32.3503 91.757 32.177 91.107 32.047V37H89.391C88.9057 36.298 88.2774 35.726 87.506 35.284C86.7434 34.8333 85.8767 34.5257 84.906 34.361L84.256 32.827C85.01 32.4023 85.8377 31.995 86.739 31.605C87.649 31.2063 88.546 30.8813 89.43 30.63V30.344H83.918V28.914H95.319V30.344H91.081V30.617C91.7657 30.721 92.3854 30.9073 92.94 31.176C93.5034 31.4447 93.9497 31.787 94.279 32.203C94.6084 32.6103 94.773 33.0913 94.773 33.646ZM86.44 33.386C86.9254 33.4813 87.4324 33.672 87.961 33.958C88.4897 34.2353 88.975 34.595 89.417 35.037C89.4084 34.933 89.3997 34.8247 89.391 34.712C89.391 34.5907 89.391 34.4693 89.391 34.348V32.177C88.8797 32.3417 88.3857 32.5237 87.909 32.723C87.441 32.9223 86.9514 33.1433 86.44 33.386ZM100.92 34.504C100.478 34.504 100.106 34.452 99.8025 34.348C99.5078 34.244 99.2738 34.075 99.1005 33.841C98.9878 33.6763 98.8968 33.4857 98.8275 33.269C98.7582 33.0437 98.7235 32.7187 98.7235 32.294V30.344H97.6575V28.914H107.446V30.344H100.374V30.383C100.565 30.539 100.773 30.6603 100.998 30.747C101.224 30.8337 101.505 30.877 101.843 30.877H102.753C102.961 30.851 103.239 30.838 103.585 30.838C104.192 30.838 104.69 30.9203 105.08 31.085C105.479 31.241 105.791 31.4403 106.016 31.683C106.242 31.9257 106.398 32.1813 106.484 32.45C106.58 32.7187 106.627 32.9657 106.627 33.191C106.627 33.841 106.463 34.374 106.133 34.79C105.804 35.1973 105.392 35.5137 104.898 35.739C105.288 35.817 105.683 35.908 106.081 36.012C106.489 36.116 106.9 36.2373 107.316 36.376L106.861 37.728C105.605 37.2947 104.396 36.9827 103.234 36.792C102.082 36.5927 100.925 36.4627 99.7635 36.402L99.9325 34.959C100.149 34.9937 100.413 35.0283 100.725 35.063C101.037 35.089 101.38 35.102 101.752 35.102C102.888 35.102 103.698 34.9373 104.183 34.608C104.677 34.27 104.924 33.8323 104.924 33.295C104.924 32.7317 104.656 32.359 104.118 32.177V32.19C104.118 32.6233 103.98 33.0177 103.702 33.373C103.425 33.7197 103.044 33.997 102.558 34.205C102.082 34.4043 101.536 34.504 100.92 34.504ZM100.491 32.996C100.587 33.126 100.769 33.191 101.037 33.191C101.436 33.191 101.774 33.1043 102.051 32.931C102.329 32.749 102.467 32.5627 102.467 32.372C102.467 32.1813 102.32 32.086 102.025 32.086H101.674C101.432 32.086 101.198 32.0513 100.972 31.982C100.756 31.904 100.548 31.8 100.348 31.67C100.366 31.826 100.374 31.956 100.374 32.06V32.45C100.374 32.6147 100.383 32.736 100.4 32.814C100.426 32.892 100.457 32.9527 100.491 32.996ZM111.304 28.914V30.344H110.056V37H108.34V31.228C108.236 30.9593 108.088 30.747 107.898 30.591C107.707 30.4263 107.46 30.344 107.157 30.344H107.092V28.914H107.352C107.551 28.914 107.737 28.966 107.911 29.07C108.084 29.174 108.244 29.395 108.392 29.733C108.383 29.6897 108.37 29.59 108.353 29.434C108.344 29.278 108.34 29.1437 108.34 29.031V28.056H109.744L110.043 28.914H111.304ZM116.387 28.914V30.344H115.646C115.256 30.5347 114.888 30.786 114.541 31.098C114.194 31.41 113.913 31.774 113.696 32.19C113.479 32.606 113.371 33.0697 113.371 33.581C113.371 34.101 113.449 34.5083 113.605 34.803C113.761 35.0977 113.956 35.3057 114.19 35.427C114.424 35.5397 114.658 35.596 114.892 35.596C115.048 35.596 115.2 35.583 115.347 35.557C115.494 35.5223 115.663 35.4573 115.854 35.362L116.504 36.649C116.218 36.8137 115.936 36.9263 115.659 36.987C115.382 37.039 115.091 37.065 114.788 37.065C113.817 37.065 113.046 36.7703 112.474 36.181C111.911 35.583 111.629 34.7293 111.629 33.62C111.629 32.9353 111.768 32.3113 112.045 31.748C112.331 31.176 112.721 30.6993 113.215 30.318C112.998 30.3353 112.686 30.344 112.279 30.344H110.94V28.914H116.387ZM124.599 28.914V30.344H118.853V33.308C119.313 32.8833 119.859 32.476 120.491 32.086C121.124 31.696 121.822 31.345 122.584 31.033L123.767 32.021C123.577 32.3503 123.438 32.71 123.351 33.1C123.265 33.49 123.221 33.9103 123.221 34.361C123.221 34.699 123.256 35.0803 123.325 35.505C123.395 35.921 123.503 36.35 123.65 36.792L121.973 37.143C121.817 36.6837 121.696 36.2373 121.609 35.804C121.531 35.3707 121.492 34.8983 121.492 34.387C121.492 34.1617 121.505 33.9407 121.531 33.724C121.566 33.5073 121.614 33.2993 121.674 33.1C121.094 33.4293 120.539 33.8063 120.01 34.231C119.482 34.647 118.996 35.063 118.554 35.479L117.137 34.556V30.344H116.032V28.914H124.599ZM132.672 28.914V30.344H131.424V37H129.708C129.223 36.298 128.594 35.726 127.823 35.284C127.06 34.8333 126.194 34.5257 125.223 34.361L124.573 32.827C125.336 32.4023 126.168 31.9907 127.069 31.592C127.97 31.1933 128.867 30.8727 129.76 30.63V30.344H124.235V28.914H132.672ZM126.757 33.386C127.242 33.4813 127.749 33.6677 128.278 33.945C128.807 34.2223 129.288 34.5863 129.721 35.037C129.712 34.7857 129.708 34.5387 129.708 34.296V32.177C129.197 32.3417 128.703 32.5237 128.226 32.723C127.758 32.9223 127.268 33.1433 126.757 33.386ZM126.575 37.156C126.306 37.156 126.081 37.065 125.899 36.883C125.717 36.6923 125.626 36.4583 125.626 36.181C125.626 35.9037 125.717 35.674 125.899 35.492C126.081 35.3013 126.306 35.206 126.575 35.206C126.852 35.206 127.078 35.3013 127.251 35.492C127.433 35.674 127.524 35.9037 127.524 36.181C127.524 36.4583 127.433 36.6923 127.251 36.883C127.078 37.065 126.852 37.156 126.575 37.156ZM139.216 28.914V30.344H137.968V37H136.252V30.344H135.004V28.914H136.265C136.126 28.758 135.974 28.5803 135.81 28.381C135.654 28.1817 135.515 27.9997 135.394 27.835C135.827 27.133 136.252 26.5827 136.668 26.184C137.092 25.7853 137.539 25.5037 138.007 25.339C138.475 25.1657 138.99 25.079 139.554 25.079C139.97 25.079 140.364 25.1137 140.737 25.183C141.118 25.2523 141.512 25.3737 141.92 25.547C142.336 25.7117 142.795 25.937 143.298 26.223C143.8 26.5003 144.385 26.847 145.053 27.263L144.169 28.42C143.467 27.9693 142.869 27.6053 142.375 27.328C141.881 27.042 141.43 26.834 141.023 26.704C140.615 26.574 140.186 26.509 139.736 26.509C139.328 26.509 138.973 26.587 138.67 26.743C138.366 26.899 138.102 27.094 137.877 27.328C137.66 27.562 137.469 27.8047 137.305 28.056C137.383 28.1947 137.474 28.342 137.578 28.498C137.682 28.654 137.79 28.7927 137.903 28.914H139.216ZM147.354 28.914V30.344H146.106V37H144.39V34.634C144.009 34.1833 143.601 33.8063 143.168 33.503C142.735 33.1997 142.314 33.048 141.907 33.048C141.69 33.048 141.504 33.1 141.348 33.204C141.201 33.2993 141.127 33.4553 141.127 33.672C141.127 33.8627 141.196 34.023 141.335 34.153C141.474 34.283 141.695 34.4087 141.998 34.53L141.231 35.96C140.65 35.7347 140.191 35.414 139.853 34.998C139.524 34.5733 139.359 34.1097 139.359 33.607C139.359 33.139 139.467 32.7577 139.684 32.463C139.901 32.1597 140.178 31.9387 140.516 31.8C140.854 31.6527 141.209 31.579 141.582 31.579C142.119 31.579 142.618 31.6873 143.077 31.904C143.536 32.1207 143.978 32.424 144.403 32.814C144.394 32.6667 144.39 32.5193 144.39 32.372C144.39 32.2247 144.39 32.086 144.39 31.956V30.344H138.852V28.914H147.354ZM152.438 28.914V30.344H151.697C151.307 30.5347 150.939 30.786 150.592 31.098C150.246 31.41 149.964 31.774 149.747 32.19C149.531 32.606 149.422 33.0697 149.422 33.581C149.422 34.101 149.5 34.5083 149.656 34.803C149.812 35.0977 150.007 35.3057 150.241 35.427C150.475 35.5397 150.709 35.596 150.943 35.596C151.099 35.596 151.251 35.583 151.398 35.557C151.546 35.5223 151.715 35.4573 151.905 35.362L152.555 36.649C152.269 36.8137 151.988 36.9263 151.71 36.987C151.433 37.039 151.143 37.065 150.839 37.065C149.869 37.065 149.097 36.7703 148.525 36.181C147.962 35.583 147.68 34.7293 147.68 33.62C147.68 32.9353 147.819 32.3113 148.096 31.748C148.382 31.176 148.772 30.6993 149.266 30.318C149.05 30.3353 148.738 30.344 148.33 30.344H146.991V28.914H152.438ZM160.053 28.914V30.344H154.983V30.474C155.225 30.812 155.529 31.072 155.893 31.254C156.265 31.4273 156.668 31.514 157.102 31.514H157.362C157.821 31.514 158.176 31.5573 158.428 31.644C158.679 31.7307 158.887 31.8693 159.052 32.06C159.173 32.19 159.264 32.3547 159.325 32.554C159.385 32.7447 159.416 32.9397 159.416 33.139C159.416 33.6677 159.316 34.1357 159.117 34.543C158.917 34.9503 158.653 35.3187 158.324 35.648C157.977 35.986 157.578 36.2547 157.128 36.454C156.677 36.6447 156.196 36.74 155.685 36.74C155.217 36.74 154.853 36.6967 154.593 36.61C154.333 36.5233 154.116 36.402 153.943 36.246C153.752 36.0813 153.592 35.8473 153.462 35.544C153.332 35.2407 153.267 34.7727 153.267 34.14V30.344H152.084V28.914H160.053ZM155.191 35.115C155.312 35.245 155.511 35.31 155.789 35.31C156.239 35.31 156.686 35.102 157.128 34.686C157.318 34.5127 157.466 34.3263 157.57 34.127C157.674 33.9277 157.726 33.724 157.726 33.516C157.726 33.3167 157.665 33.178 157.544 33.1C157.431 33.022 157.279 32.983 157.089 32.983H156.959C156.699 32.983 156.465 32.957 156.257 32.905C156.057 32.853 155.828 32.7533 155.568 32.606C155.334 32.4673 155.134 32.3113 154.97 32.138C154.97 32.2073 154.97 32.2767 154.97 32.346C154.978 32.4153 154.983 32.4847 154.983 32.554V34.153C154.983 34.4477 155 34.6643 155.035 34.803C155.069 34.9417 155.121 35.0457 155.191 35.115ZM171.847 28.914V30.344H170.599V37H168.883V33.087C168.675 32.879 168.488 32.775 168.324 32.775C168.22 32.775 168.124 32.8053 168.038 32.866C167.951 32.9267 167.847 33.048 167.726 33.23C167.604 33.412 167.427 33.6893 167.193 34.062C166.82 34.6427 166.478 35.0543 166.166 35.297C165.862 35.5397 165.485 35.661 165.035 35.661C164.645 35.661 164.272 35.557 163.917 35.349C163.57 35.141 163.223 34.7337 162.877 34.127L164.073 33.386C164.246 33.6633 164.393 33.8627 164.515 33.984C164.636 34.0967 164.779 34.153 164.944 34.153C165.056 34.153 165.16 34.127 165.256 34.075C165.36 34.023 165.49 33.8887 165.646 33.672C165.568 33.178 165.485 32.7837 165.399 32.489C165.312 32.1857 165.173 31.9517 164.983 31.787C164.775 31.605 164.497 31.4707 164.151 31.384C163.804 31.2887 163.366 31.2107 162.838 31.15L163.098 30.344H162.383V28.914H171.847ZM168.883 30.344H165.178C165.68 30.5 166.031 30.7167 166.231 30.994C166.439 31.2713 166.577 31.6613 166.647 32.164C166.837 31.8607 167.024 31.6483 167.206 31.527C167.396 31.397 167.622 31.332 167.882 31.332C168.072 31.332 168.246 31.371 168.402 31.449C168.566 31.527 168.735 31.6397 168.909 31.787C168.9 31.6657 168.891 31.54 168.883 31.41C168.883 31.2713 168.883 31.137 168.883 31.007V30.344ZM179.924 28.914V30.344H178.676V37H176.96C176.474 36.298 175.846 35.726 175.075 35.284C174.312 34.8333 173.445 34.5257 172.475 34.361L171.825 32.827C172.587 32.4023 173.419 31.9907 174.321 31.592C175.222 31.1933 176.119 30.8727 177.012 30.63V30.344H171.487V28.914H179.924ZM174.009 33.386C174.494 33.4813 175.001 33.6677 175.53 33.945C176.058 34.2223 176.539 34.5863 176.973 35.037C176.964 34.7857 176.96 34.5387 176.96 34.296V32.177C176.448 32.3417 175.954 32.5237 175.478 32.723C175.01 32.9223 174.52 33.1433 174.009 33.386ZM183.775 28.914V30.344H182.527V37H180.811V30.344H179.563V28.914H180.824C180.685 28.758 180.533 28.5803 180.369 28.381C180.213 28.1817 180.074 27.9997 179.953 27.835C180.386 27.133 180.811 26.5827 181.227 26.184C181.651 25.7853 182.098 25.5037 182.566 25.339C183.034 25.1657 183.549 25.079 184.113 25.079C184.529 25.079 184.923 25.1137 185.296 25.183C185.677 25.2523 186.071 25.3737 186.479 25.547C186.895 25.7117 187.354 25.937 187.857 26.223C188.359 26.5003 188.944 26.847 189.612 27.263L188.728 28.42C188.026 27.9693 187.428 27.6053 186.934 27.328C186.44 27.042 185.989 26.834 185.582 26.704C185.174 26.574 184.745 26.509 184.295 26.509C183.887 26.509 183.532 26.587 183.229 26.743C182.925 26.899 182.661 27.094 182.436 27.328C182.219 27.562 182.028 27.8047 181.864 28.056C181.942 28.1947 182.033 28.342 182.137 28.498C182.241 28.654 182.349 28.7927 182.462 28.914H183.775ZM194.266 33.646C194.266 33.932 194.205 34.205 194.084 34.465C193.971 34.725 193.772 34.9373 193.486 35.102C193.2 35.2667 192.801 35.349 192.29 35.349C191.934 35.349 191.627 35.323 191.367 35.271L191.419 33.841C191.462 33.8497 191.514 33.8583 191.575 33.867C191.644 33.867 191.731 33.867 191.835 33.867C192.147 33.867 192.35 33.815 192.446 33.711C192.541 33.5983 192.589 33.464 192.589 33.308C192.589 33.0307 192.42 32.7837 192.082 32.567C191.744 32.3503 191.25 32.177 190.6 32.047V37H188.884C188.398 36.298 187.77 35.726 186.999 35.284C186.236 34.8333 185.369 34.5257 184.399 34.361L183.749 32.827C184.503 32.4023 185.33 31.995 186.232 31.605C187.142 31.2063 188.039 30.8813 188.923 30.63V30.344H183.411V28.914H194.812V30.344H190.574V30.617C191.258 30.721 191.878 30.9073 192.433 31.176C192.996 31.4447 193.442 31.787 193.772 32.203C194.101 32.6103 194.266 33.0913 194.266 33.646ZM185.933 33.386C186.418 33.4813 186.925 33.672 187.454 33.958C187.982 34.2353 188.468 34.595 188.91 35.037C188.901 34.933 188.892 34.8247 188.884 34.712C188.884 34.5907 188.884 34.4693 188.884 34.348V32.177C188.372 32.3417 187.878 32.5237 187.402 32.723C186.934 32.9223 186.444 33.1433 185.933 33.386ZM203.921 28.914V30.344H202.673V37H200.957V33.087C200.749 32.879 200.563 32.775 200.398 32.775C200.294 32.775 200.199 32.8053 200.112 32.866C200.026 32.9267 199.922 33.048 199.8 33.23C199.679 33.412 199.501 33.6893 199.267 34.062C198.895 34.6427 198.552 35.0543 198.24 35.297C197.937 35.5397 197.56 35.661 197.109 35.661C196.719 35.661 196.347 35.557 195.991 35.349C195.645 35.141 195.298 34.7337 194.951 34.127L196.147 33.386C196.321 33.6633 196.468 33.8627 196.589 33.984C196.711 34.0967 196.854 34.153 197.018 34.153C197.131 34.153 197.235 34.127 197.33 34.075C197.434 34.023 197.564 33.8887 197.72 33.672C197.642 33.178 197.56 32.7837 197.473 32.489C197.387 32.1857 197.248 31.9517 197.057 31.787C196.849 31.605 196.572 31.4707 196.225 31.384C195.879 31.2887 195.441 31.2107 194.912 31.15L195.172 30.344H194.457V28.914H203.921ZM200.957 30.344H197.252C197.755 30.5 198.106 30.7167 198.305 30.994C198.513 31.2713 198.652 31.6613 198.721 32.164C198.912 31.8607 199.098 31.6483 199.28 31.527C199.471 31.397 199.696 31.332 199.956 31.332C200.147 31.332 200.32 31.371 200.476 31.449C200.641 31.527 200.81 31.6397 200.983 31.787C200.975 31.6657 200.966 31.54 200.957 31.41C200.957 31.2713 200.957 31.137 200.957 31.007V30.344ZM199.713 40.458C199.419 40.458 199.115 40.4017 198.803 40.289C198.483 40.185 198.214 40.016 197.997 39.782C197.781 39.548 197.672 39.236 197.672 38.846C197.672 38.3693 197.854 37.988 198.218 37.702C198.574 37.416 199.094 37.273 199.778 37.273C200.151 37.273 200.511 37.3033 200.857 37.364V36.792H202.573V37.429C202.573 37.6023 202.565 37.767 202.547 37.923C202.911 38.105 203.284 38.3217 203.665 38.573C204.047 38.8243 204.45 39.1147 204.874 39.444L203.951 40.523C203.327 39.9597 202.742 39.509 202.196 39.171C202.014 39.5263 201.728 39.8297 201.338 40.081C200.948 40.3323 200.407 40.458 199.713 40.458ZM199.258 38.898C199.258 39.1927 199.453 39.34 199.843 39.34C200.121 39.34 200.333 39.2577 200.48 39.093C200.619 38.937 200.714 38.7507 200.766 38.534C200.506 38.4647 200.255 38.43 200.012 38.43C199.744 38.43 199.553 38.4733 199.44 38.56C199.319 38.6467 199.258 38.7593 199.258 38.898Z" fill="#A7A7A7"/>
<path d="M50.8217 23H52.8207V19.0945H56.8786V23H58.8729V13.5455H56.8786V17.4464H52.8207V13.5455H50.8217V23ZM62.406 23.1339C63.454 23.1339 64.1326 22.6768 64.4788 22.0167H64.5342V23H66.3993V18.2173C66.3993 16.5277 64.9682 15.8168 63.3893 15.8168C61.6905 15.8168 60.5733 16.6293 60.3009 17.9219L62.1198 18.0696C62.2537 17.5987 62.6738 17.2525 63.3801 17.2525C64.0495 17.2525 64.4327 17.5895 64.4327 18.1712V18.1989C64.4327 18.6559 63.9479 18.7159 62.7153 18.8359C61.3119 18.9652 60.0516 19.4361 60.0516 21.0195C60.0516 22.4229 61.0534 23.1339 62.406 23.1339ZM62.9692 21.7766C62.3645 21.7766 61.9305 21.495 61.9305 20.9549C61.9305 20.4009 62.3876 20.1286 63.08 20.0316C63.5094 19.9716 64.2111 19.87 64.4465 19.7131V20.4656C64.4465 21.2088 63.8325 21.7766 62.9692 21.7766ZM67.825 25.6591H69.7917V21.8643H69.8517C70.124 22.4553 70.7196 23.1154 71.8645 23.1154C73.4802 23.1154 74.7405 21.8366 74.7405 19.4638C74.7405 17.0263 73.4248 15.8168 71.8691 15.8168C70.6826 15.8168 70.1148 16.5231 69.8517 17.1001H69.764V15.9091H67.825V25.6591ZM69.7501 19.4545C69.7501 18.1896 70.2856 17.3817 71.2412 17.3817C72.2153 17.3817 72.7324 18.2266 72.7324 19.4545C72.7324 20.6918 72.2061 21.5504 71.2412 21.5504C70.2949 21.5504 69.7501 20.7195 69.7501 19.4545ZM75.9516 25.6591H77.9182V21.8643H77.9782C78.2506 22.4553 78.8461 23.1154 79.991 23.1154C81.6068 23.1154 82.8671 21.8366 82.8671 19.4638C82.8671 17.0263 81.5514 15.8168 79.9956 15.8168C78.8092 15.8168 78.2414 16.5231 77.9782 17.1001H77.8905V15.9091H75.9516V25.6591ZM77.8767 19.4545C77.8767 18.1896 78.4122 17.3817 79.3678 17.3817C80.3419 17.3817 80.8589 18.2266 80.8589 19.4545C80.8589 20.6918 80.3326 21.5504 79.3678 21.5504C78.4214 21.5504 77.8767 20.7195 77.8767 19.4545ZM85.0511 25.6452C86.5145 25.6452 87.2947 24.902 87.6917 23.7663L90.4477 15.9183L88.3657 15.9091L86.8838 21.1165H86.81L85.3419 15.9091H83.2737L85.8174 23.2031L85.702 23.5032C85.425 24.1449 84.9495 24.1911 84.257 23.9741L83.8139 25.4467C84.0955 25.5621 84.5525 25.6452 85.0511 25.6452ZM91.3911 23H93.39V19.0945H97.4479V23H99.4422V13.5455H97.4479V17.4464H93.39V13.5455H91.3911V23ZM104.157 23.1385C106.308 23.1385 107.647 21.6658 107.647 19.4822C107.647 17.2848 106.308 15.8168 104.157 15.8168C102.006 15.8168 100.667 17.2848 100.667 19.4822C100.667 21.6658 102.006 23.1385 104.157 23.1385ZM104.166 21.6151C103.174 21.6151 102.666 20.7056 102.666 19.4684C102.666 18.2312 103.174 17.3171 104.166 17.3171C105.141 17.3171 105.648 18.2312 105.648 19.4684C105.648 20.7056 105.141 21.6151 104.166 21.6151ZM108.826 23H110.793V18.7436C110.793 17.9588 111.291 17.4371 111.947 17.4371C112.593 17.4371 113.027 17.8803 113.027 18.5774V23H114.934V18.6697C114.934 17.9357 115.354 17.4371 116.069 17.4371C116.697 17.4371 117.168 17.8295 117.168 18.619V23H119.13V18.2312C119.13 16.6939 118.216 15.8168 116.896 15.8168C115.857 15.8168 115.049 16.3477 114.758 17.1602H114.684C114.458 16.3384 113.733 15.8168 112.759 15.8168C111.804 15.8168 111.079 16.3246 110.783 17.1602H110.7V15.9091H108.826V23ZM123.815 23.1385C125.569 23.1385 126.751 22.2844 127.028 20.9688L125.209 20.8487C125.011 21.3888 124.503 21.6705 123.847 21.6705C122.864 21.6705 122.241 21.0195 122.241 19.9624V19.9577H127.07V19.4176C127.07 17.0078 125.611 15.8168 123.736 15.8168C121.65 15.8168 120.297 17.2987 120.297 19.4869C120.297 21.7351 121.631 23.1385 123.815 23.1385ZM122.241 18.739C122.282 17.9311 122.896 17.2848 123.769 17.2848C124.623 17.2848 125.214 17.8942 125.218 18.739H122.241ZM129.402 23.12C129.993 23.12 130.506 22.6261 130.51 22.0121C130.506 21.4073 129.993 20.9134 129.402 20.9134C128.793 20.9134 128.29 21.4073 128.295 22.0121C128.29 22.6261 128.793 23.12 129.402 23.12ZM135.229 23.1385C137.117 23.1385 138.303 22.0305 138.396 20.4009H136.54C136.425 21.158 135.926 21.5827 135.252 21.5827C134.333 21.5827 133.738 20.8118 133.738 19.4545C133.738 18.1158 134.338 17.3494 135.252 17.3494C135.972 17.3494 136.434 17.8249 136.54 18.5312H138.396C138.313 16.8924 137.071 15.8168 135.22 15.8168C133.068 15.8168 131.739 17.3079 131.739 19.4822C131.739 21.6381 133.045 23.1385 135.229 23.1385ZM142.759 23.1385C144.91 23.1385 146.249 21.6658 146.249 19.4822C146.249 17.2848 144.91 15.8168 142.759 15.8168C140.607 15.8168 139.269 17.2848 139.269 19.4822C139.269 21.6658 140.607 23.1385 142.759 23.1385ZM142.768 21.6151C141.775 21.6151 141.268 20.7056 141.268 19.4684C141.268 18.2312 141.775 17.3171 142.768 17.3171C143.742 17.3171 144.25 18.2312 144.25 19.4684C144.25 20.7056 143.742 21.6151 142.768 21.6151ZM147.428 23H149.394V18.7436C149.394 17.9588 149.893 17.4371 150.548 17.4371C151.195 17.4371 151.629 17.8803 151.629 18.5774V23H153.535V18.6697C153.535 17.9357 153.955 17.4371 154.671 17.4371C155.299 17.4371 155.77 17.8295 155.77 18.619V23H157.732V18.2312C157.732 16.6939 156.817 15.8168 155.497 15.8168C154.458 15.8168 153.651 16.3477 153.36 17.1602H153.286C153.06 16.3384 152.335 15.8168 151.361 15.8168C150.405 15.8168 149.68 16.3246 149.385 17.1602H149.302V15.9091H147.428V23Z" fill="#3532BC" fill-opacity="0.95"/>
<g opacity="0.29927">
<path fill-rule="evenodd" clip-rule="evenodd" d="M14.3444 18.7573L28.2247 4.61521C30.5244 2.27206 34.2531 2.27206 36.5528 4.61521L50.4331 18.7573C52.7328 21.1005 52.7328 24.8995 50.4331 27.2426L36.5528 41.3848C34.2531 43.7279 30.5244 43.7279 28.2247 41.3848L14.3444 27.2426C12.0447 24.8995 12.0447 21.1005 14.3444 18.7573Z" fill="#FF9900"/>
</g>
<path fill-rule="evenodd" clip-rule="evenodd" d="M2.56661 18.7573L16.4469 4.61521C18.7466 2.27206 22.4753 2.27206 24.775 4.61521L38.6553 18.7573C40.955 21.1005 40.955 24.8995 38.6553 27.2426L24.775 41.3848C22.4753 43.7279 18.7466 43.7279 16.4469 41.3848L2.56661 27.2426C0.266858 24.8995 0.266858 21.1005 2.56661 18.7573Z" fill="#FF9900"/>
<path opacity="0.3" fill-rule="evenodd" clip-rule="evenodd" d="M15.3623 22.9304L14.8943 23.4072C14.8702 23.4318 14.868 23.5024 14.8887 23.5264L20.1158 29.5546L26.5556 22.9908L20.6368 17.6699C20.6142 17.6495 20.5431 17.6518 20.5199 17.6755L20.0519 18.1523L20.9898 19.1079C21.2488 19.3718 21.2488 19.7997 20.9898 20.0636C20.7308 20.3274 20.3109 20.3274 20.0519 20.0636L19.114 19.1079L16.3002 21.9748L17.2381 22.9304C17.4971 23.1943 17.4971 23.6222 17.2381 23.886C16.9791 24.1499 16.5592 24.1499 16.3002 23.886L15.3623 22.9304Z" fill="white"/>
<path fill-rule="evenodd" clip-rule="evenodd" d="M14.4243 17.1967C15.7187 15.8779 17.8197 15.8781 19.1128 17.1956L19.5819 16.7199C20.1005 16.1916 20.9666 16.164 21.5144 16.6565L27.4996 22.0372C28.0484 22.5305 28.0746 23.3569 27.5576 23.8837L20.9875 30.5778C20.4708 31.1042 19.6586 31.0769 19.1752 30.5187L13.8941 24.4206C13.4099 23.8615 13.4369 22.9808 13.9564 22.4516L14.4243 21.9748C13.1294 20.6555 13.1308 18.5146 14.4243 17.1967ZM18.176 18.1523C17.3998 17.3614 16.1386 17.3614 15.3622 18.1523C14.5865 18.9427 14.5856 20.2279 15.3611 21.0181L18.176 18.1523ZM15.3623 22.9304L14.8943 23.4072C14.8702 23.4318 14.868 23.5024 14.8887 23.5264L20.1158 29.5546L26.5556 22.9909L20.6368 17.6699C20.6142 17.6495 20.5431 17.6518 20.5198 17.6755L20.0519 18.1523L20.9898 19.1079C21.2488 19.3718 21.2488 19.7997 20.9898 20.0636C20.7308 20.3274 20.3109 20.3274 20.0519 20.0636L19.114 19.1079L16.3002 21.9748L17.2381 22.9304C17.4971 23.1943 17.4971 23.6222 17.2381 23.8861C16.9791 24.1499 16.5592 24.1499 16.3002 23.8861L15.3623 22.9304Z" fill="white"/>
</svg>
