<svg width="49" height="48" viewBox="0 0 49 48" fill="none" xmlns="http://www.w3.org/2000/svg">
<g clip-path="url(#clip0)">
<path fill-rule="evenodd" clip-rule="evenodd" d="M24.4463 48C37.7559 48 48.5455 37.2548 48.5455 24C48.5455 10.7452 37.7559 0 24.4463 0C11.1367 0 0.347168 10.7452 0.347168 24C0.347168 37.2548 11.1367 48 24.4463 48Z" fill="#FF9900"/>
<path fill-rule="evenodd" clip-rule="evenodd" d="M24.3473 32.5708L23.0182 31.3608C18.2973 27.08 15.1807 24.2567 15.1807 20.7917C15.1807 17.9683 17.399 15.75 20.2223 15.75C21.8173 15.75 23.3482 16.4925 24.3473 17.6658C25.3465 16.4925 26.8773 15.75 28.4723 15.75C31.2957 15.75 33.514 17.9683 33.514 20.7917C33.514 24.2567 30.3973 27.08 25.6765 31.37L24.3473 32.5708Z" fill="#969696"/>
</g>
<defs>
<clipPath id="clip0">
<rect x="0.347168" width="48.1983" height="48" fill="white"/>
</clipPath>
</defs>
</svg>
